HIERARCHY
ROOT Hips
{
	OFFSET 0.000000 71.427986 0.000000
	CHANNELS 6 Xposition Yposition Zposition Xrotation Yrotation Zrotation
	JOINT Pelvis
	{
		OFFSET 0.000000 0.000000 0.000000
		CHANNELS 3 Xrotation Yrotation Zrotation
		JOINT LeftUpLeg
		{
			OFFSET 6.797100 -2.508499 -1.318700
			CHANNELS 3 Xrotation Yrotation Zrotation
			JOINT LeftLeg
			{
				OFFSET 0.069008 -29.241863 0.690200
				CHANNELS 3 Xrotation Yrotation Zrotation
				JOINT LeftFoot
				{
					OFFSET -0.069008 -29.568123 -0.266800
					CHANNELS 3 Xrotation Yrotation Zrotation
					JOINT LeftToeBase
					{
						OFFSET 3.145500 -8.631000 16.059900
						CHANNELS 3 Xrotation Yrotation Zrotation
						End Site
						{
							OFFSET 0.000000 18.501587 0.000000
						}
					}
				}
			}
			JOINT Left_ShortSleeve
			{
				OFFSET 0.265923 -10.480953 1.153800
				CHANNELS 3 Xrotation Yrotation Zrotation
				End Site
				{
					OFFSET 1.725763 19.823879 0.000000
				}
			}
		}
		JOINT RightUpLeg
		{
			OFFSET -6.797100 -2.508499 -1.318700
			CHANNELS 3 Xrotation Yrotation Zrotation
			JOINT RightLeg
			{
				OFFSET -0.082453 -29.241932 0.688000
				CHANNELS 3 Xrotation Yrotation Zrotation
				JOINT RightFoot
				{
					OFFSET 0.082453 -29.568058 -0.264600
					CHANNELS 3 Xrotation Yrotation Zrotation
					JOINT RightToeBase
					{
						OFFSET -3.115300 -8.682800 16.113400
						CHANNELS 3 Xrotation Yrotation Zrotation
						End Site
						{
							OFFSET 0.000000 18.567114 0.000000
						}
					}
				}
			}
			JOINT Right_ShortSleeve
			{
				OFFSET -0.265923 -10.480953 1.153800
				CHANNELS 3 Xrotation Yrotation Zrotation
				End Site
				{
					OFFSET -1.725766 19.823910 0.000000
				}
			}
		}
	}
	JOINT Spine
	{
		OFFSET 0.000000 13.368103 0.470500
		CHANNELS 3 Xrotation Yrotation Zrotation
		JOINT Spine1
		{
			OFFSET 0.147000 13.837402 0.538800
			CHANNELS 3 Xrotation Yrotation Zrotation
			JOINT Spine2
			{
				OFFSET 0.168000 16.242897 -1.435500
				CHANNELS 3 Xrotation Yrotation Zrotation
				JOINT Neck
				{
					OFFSET 0.217200 18.631500 -1.679100
					CHANNELS 3 Xrotation Yrotation Zrotation
					JOINT Head
					{
						OFFSET 0.000000 6.599396 1.385900
						CHANNELS 3 Xrotation Yrotation Zrotation
						JOINT Hat
						{
							OFFSET -0.532200 27.220596 -10.096100
							CHANNELS 3 Xrotation Yrotation Zrotation
							End Site
							{
								OFFSET 0.000000 22.029861 0.000000
							}
						}
						JOINT HairD
						{
							OFFSET -10.777400 17.437393 -1.325900
							CHANNELS 3 Xrotation Yrotation Zrotation
							JOINT HairD1
							{
								OFFSET -3.290299 -11.051193 1.062200
								CHANNELS 3 Xrotation Yrotation Zrotation
								End Site
								{
									OFFSET 0.000000 11.579437 0.000000
								}
							}
						}
						JOINT HairB
						{
							OFFSET -10.777400 17.437393 1.467900
							CHANNELS 3 Xrotation Yrotation Zrotation
							JOINT HairB1
							{
								OFFSET -1.561200 -12.956299 3.590200
								CHANNELS 3 Xrotation Yrotation Zrotation
								End Site
								{
									OFFSET 0.000000 13.534866 0.000000
								}
							}
						}
						JOINT HairA
						{
							OFFSET 9.713100 17.437393 1.467900
							CHANNELS 3 Xrotation Yrotation Zrotation
							JOINT HairA1
							{
								OFFSET 1.561200 -12.956299 3.590200
								CHANNELS 3 Xrotation Yrotation Zrotation
								End Site
								{
									OFFSET 0.000000 13.534866 0.000000
								}
							}
						}
						JOINT HairC
						{
							OFFSET 9.713100 17.437393 -1.325900
							CHANNELS 3 Xrotation Yrotation Zrotation
							JOINT HairC1
							{
								OFFSET 3.290300 -11.051193 1.062200
								CHANNELS 3 Xrotation Yrotation Zrotation
								End Site
								{
									OFFSET 0.000000 11.579437 0.000000
								}
							}
						}
					}
				}
				JOINT LeftShoulder
				{
					OFFSET 5.101800 15.108002 -2.763700
					CHANNELS 3 Xrotation Yrotation Zrotation
					JOINT LeftArm
					{
						OFFSET 9.825497 2.506317 -1.597400
						CHANNELS 3 Xrotation Yrotation Zrotation
						JOINT LeftForeArm
						{
							OFFSET 21.966244 0.000000 0.000000
							CHANNELS 3 Xrotation Yrotation Zrotation
							JOINT LeftHand
							{
								OFFSET 33.879036 0.000000 0.000000
								CHANNELS 3 Xrotation Yrotation Zrotation
								JOINT LeftHandThumb1
								{
									OFFSET 6.715286 -2.359680 3.363841
									CHANNELS 3 Xrotation Yrotation Zrotation
									JOINT LeftHandThumb2
									{
										OFFSET 2.507072 -1.447464 1.447461
										CHANNELS 3 Xrotation Yrotation Zrotation
										JOINT LeftHandThumb3
										{
											OFFSET 2.898338 -1.673355 1.673357
											CHANNELS 3 Xrotation Yrotation Zrotation
											End Site
											{
												OFFSET -0.295959 3.727692 -0.131651
											}
										}
									}
								}
								JOINT LeftHandIndex1
								{
									OFFSET 14.190811 -0.254547 3.840278
									CHANNELS 3 Xrotation Yrotation Zrotation
									JOINT LeftHandIndex2
									{
										OFFSET 3.551727 0.000000 -0.000000
										CHANNELS 3 Xrotation Yrotation Zrotation
										JOINT LeftHandIndex3
										{
											OFFSET 2.894196 0.000000 0.000000
											CHANNELS 3 Xrotation Yrotation Zrotation
											End Site
											{
												OFFSET -1.000603 2.690872 0.366626
											}
										}
									}
								}
								JOINT LeftHandMiddle1
								{
									OFFSET 13.776489 0.000000 0.000000
									CHANNELS 3 Xrotation Yrotation Zrotation
									JOINT LeftHandMiddle2
									{
										OFFSET 3.438232 0.000000 0.000000
										CHANNELS 3 Xrotation Yrotation Zrotation
										JOINT LeftHandMiddle3
										{
											OFFSET 3.691551 0.000000 0.000000
											CHANNELS 3 Xrotation Yrotation Zrotation
											End Site
											{
												OFFSET -1.082298 3.499527 0.457670
											}
										}
									}
								}
								JOINT LeftHandRing1
								{
									OFFSET 13.966164 -0.268127 -3.067488
									CHANNELS 3 Xrotation Yrotation Zrotation
									JOINT LeftHandRing2
									{
										OFFSET 3.162567 0.000000 0.000000
										CHANNELS 3 Xrotation Yrotation Zrotation
										JOINT LeftHandRing3
										{
											OFFSET 3.324348 0.000000 0.000000
											CHANNELS 3 Xrotation Yrotation Zrotation
											End Site
											{
												OFFSET -0.861900 3.184998 0.405154
											}
										}
									}
								}
								JOINT LeftHandPinky1
								{
									OFFSET 13.131393 -0.168503 -5.746925
									CHANNELS 3 Xrotation Yrotation Zrotation
									JOINT LeftHandPinky2
									{
										OFFSET 2.849182 0.000000 0.000000
										CHANNELS 3 Xrotation Yrotation Zrotation
										JOINT LeftHandPinky3
										{
											OFFSET 2.805038 0.000000 0.000000
											CHANNELS 3 Xrotation Yrotation Zrotation
											End Site
											{
												OFFSET -0.882500 2.642609 0.325652
											}
										}
									}
								}
							}
							JOINT Left_Sleeve
							{
								OFFSET 6.592125 -0.646545 0.805568
								CHANNELS 3 Xrotation Yrotation Zrotation
								End Site
								{
									OFFSET -0.000179 20.275787 -0.000000
								}
							}
						}
					}
				}
				JOINT RightShoulder
				{
					OFFSET -5.731700 15.108002 -2.763700
					CHANNELS 3 Xrotation Yrotation Zrotation
					JOINT RightArm
					{
						OFFSET -9.825497 2.506317 -1.597400
						CHANNELS 3 Xrotation Yrotation Zrotation
						JOINT RightForeArm
						{
							OFFSET -21.966242 0.000000 0.000000
							CHANNELS 3 Xrotation Yrotation Zrotation
							JOINT RightHand
							{
								OFFSET -33.879032 0.000000 0.000000
								CHANNELS 3 Xrotation Yrotation Zrotation
								JOINT RightHandThumb1
								{
									OFFSET -6.715286 -2.359680 3.363841
									CHANNELS 3 Xrotation Yrotation Zrotation
									JOINT RightHandThumb2
									{
										OFFSET -2.507072 -1.447464 1.447461
										CHANNELS 3 Xrotation Yrotation Zrotation
										JOINT RightHandThumb3
										{
											OFFSET -2.898338 -1.673355 1.673357
											CHANNELS 3 Xrotation Yrotation Zrotation
											End Site
											{
												OFFSET 0.295959 3.727692 -0.131651
											}
										}
									}
								}
								JOINT RightHandIndex1
								{
									OFFSET -14.190811 -0.254547 3.840278
									CHANNELS 3 Xrotation Yrotation Zrotation
									JOINT RightHandIndex2
									{
										OFFSET -3.551727 0.000000 -0.000000
										CHANNELS 3 Xrotation Yrotation Zrotation
										JOINT RightHandIndex3
										{
											OFFSET -2.894196 0.000000 0.000000
											CHANNELS 3 Xrotation Yrotation Zrotation
											End Site
											{
												OFFSET 1.000603 2.690872 0.366626
											}
										}
									}
								}
								JOINT RightHandMiddle1
								{
									OFFSET -13.776489 0.000000 0.000000
									CHANNELS 3 Xrotation Yrotation Zrotation
									JOINT RightHandMiddle2
									{
										OFFSET -3.438232 0.000000 0.000000
										CHANNELS 3 Xrotation Yrotation Zrotation
										JOINT RightHandMiddle3
										{
											OFFSET -3.691551 0.000000 0.000000
											CHANNELS 3 Xrotation Yrotation Zrotation
											End Site
											{
												OFFSET 1.082298 3.499527 0.457670
											}
										}
									}
								}
								JOINT RightHandRing1
								{
									OFFSET -13.966164 -0.268127 -3.067488
									CHANNELS 3 Xrotation Yrotation Zrotation
									JOINT RightHandRing2
									{
										OFFSET -3.162567 0.000000 0.000000
										CHANNELS 3 Xrotation Yrotation Zrotation
										JOINT RightHandRing3
										{
											OFFSET -3.324348 0.000000 0.000000
											CHANNELS 3 Xrotation Yrotation Zrotation
											End Site
											{
												OFFSET 0.861900 3.184998 0.405154
											}
										}
									}
								}
								JOINT RightHandPinky1
								{
									OFFSET -13.131393 -0.168503 -5.746925
									CHANNELS 3 Xrotation Yrotation Zrotation
									JOINT RightHandPinky2
									{
										OFFSET -2.849182 0.000000 0.000000
										CHANNELS 3 Xrotation Yrotation Zrotation
										JOINT RightHandPinky3
										{
											OFFSET -2.805038 0.000000 0.000000
											CHANNELS 3 Xrotation Yrotation Zrotation
											End Site
											{
												OFFSET 0.882500 2.642609 0.325652
											}
										}
									}
								}
							}
							JOINT Right_Sleeve
							{
								OFFSET -6.592125 -0.646545 0.805568
								CHANNELS 3 Xrotation Yrotation Zrotation
								End Site
								{
									OFFSET 0.000179 20.275787 -0.000000
								}
							}
						}
					}
				}
				JOINT Bind_Right_JacketString
				{
					OFFSET -3.534800 11.969597 7.200700
					CHANNELS 3 Xrotation Yrotation Zrotation
					JOINT Bind_Right_JacketString1
					{
						OFFSET -0.319900 -6.102600 2.794100
						CHANNELS 3 Xrotation Yrotation Zrotation
						End Site
						{
							OFFSET 0.000000 6.719452 0.000000
						}
					}
				}
				JOINT Bind_Left_JacketString
				{
					OFFSET 2.904800 11.969597 7.200700
					CHANNELS 3 Xrotation Yrotation Zrotation
					JOINT Bind_Left_JacketString1
					{
						OFFSET 0.364800 -5.904503 3.186800
						CHANNELS 3 Xrotation Yrotation Zrotation
						End Site
						{
							OFFSET 0.000000 6.719513 0.000000
						}
					}
				}
				JOINT HairE
				{
					OFFSET 5.915200 17.612701 -11.592200
					CHANNELS 3 Xrotation Yrotation Zrotation
					JOINT HairE1
					{
						OFFSET 0.289200 -7.171898 -1.284500
						CHANNELS 3 Xrotation Yrotation Zrotation
						End Site
						{
							OFFSET 0.000000 7.291756 0.000000
						}
					}
				}
				JOINT HairF
				{
					OFFSET -0.864800 17.612701 -11.592200
					CHANNELS 3 Xrotation Yrotation Zrotation
					JOINT HairF1
					{
						OFFSET 0.000000 -14.087097 -2.127501
						CHANNELS 3 Xrotation Yrotation Zrotation
						End Site
						{
							OFFSET 0.000000 14.246841 0.000000
						}
					}
				}
				JOINT HairG
				{
					OFFSET -8.087700 17.612701 -11.592200
					CHANNELS 3 Xrotation Yrotation Zrotation
					JOINT HairG1
					{
						OFFSET -0.293600 -6.081398 -0.910100
						CHANNELS 3 Xrotation Yrotation Zrotation
						End Site
						{
							OFFSET 0.000000 6.156120 0.000000
						}
					}
				}
			}
		}
	}
	JOINT Pouch
	{
		OFFSET 0.000000 4.394501 10.847300
		CHANNELS 3 Xrotation Yrotation Zrotation
		End Site
		{
			OFFSET 0.000000 21.880577 0.000000
		}
	}
	JOINT Bag
	{
		OFFSET -13.229000 4.813004 -0.593300
		CHANNELS 3 Xrotation Yrotation Zrotation
		End Site
		{
			OFFSET 0.000000 21.880577 0.000000
		}
	}
	JOINT OccupyGuyFacialAnim_Joint
	{
		OFFSET 1.000000 -70.206398 -1.655000
		CHANNELS 3 Xrotation Yrotation Zrotation
		End Site
		{
			OFFSET 0.000000 21.880577 0.000000
		}
	}
}
MOTION
Frames: 4
Frame Time: 0.033333
-0.798680 41.882195 -0.361327 0.562582 -175.745262 -9.198945 0.000000 0.000001 -0.000001 -77.274383 -10.372572 14.401828 115.639665 8.736677 3.310315 -35.647167 4.589243 -11.765768 0.000000 0.000000 -0.000000 -0.000001 0.000000 0.000001 -59.537475 8.982437 -24.054475 107.035089 0.083461 -0.730195 -31.032411 -8.757174 25.842671 0.000000 -0.000000 0.000000 0.000002 -0.000002 0.000000 4.029665 3.657566 -1.939118 8.251231 6.772774 -4.728795 8.251225 6.772769 -4.728788 -2.960825 29.386814 5.421886 4.451725 35.046951 -20.499580 0.000000 0.000000 -0.000000 0.000000 0.000000 -0.000000 0.000000 0.000000 0.000000 0.000000 0.000000 -0.000000 -0.000001 0.000000 0.000000 0.000000 0.000000 -0.000000 -0.000001 0.000000 0.000000 0.000000 0.000000 -0.000000 0.000000 0.000000 -0.000000 1.033496 -15.235113 -11.647753 3.042440 -0.761198 -32.016365 40.133550 -33.388181 -1.908184 12.866409 10.638201 2.322267 -9.430078 -10.455673 8.418338 2.375734 6.684503 2.195292 0.000001 0.000001 -0.000000 -1.240220 -9.026407 -4.968835 -0.136534 0.199323 -21.713018 -0.000000 -0.000001 -0.000002 1.299848 -1.018923 -8.079453 -0.198094 -0.780037 -14.429101 0.000002 -0.000000 0.000001 -0.369348 2.945999 -4.498363 -0.579013 -2.647804 -30.196454 -0.000001 0.000001 -0.000002 0.026887 5.964710 0.716919 -0.705915 -5.781601 -39.699682 -0.000001 -0.000001 -0.000002 0.000002 -0.000000 0.000000 3.185197 -18.297175 12.806548 12.807479 -13.875019 59.330507 29.940834 40.956953 -3.738874 19.089477 -1.945295 12.311401 -7.843435 4.773332 -9.669399 -0.601670 -0.082512 -1.244038 -0.000000 -0.000002 -0.000001 -1.235132 0.595840 8.695271 0.143308 -1.127041 16.866725 0.000003 0.000001 0.000000 -1.135033 -1.773279 0.545636 -0.339776 1.153119 22.117889 0.000004 -0.000000 -0.000001 1.911455 -0.142566 -2.803129 -0.567193 3.089096 28.346672 0.000003 -0.000003 -0.000002 4.769140 -2.272387 -7.778861 -1.320777 7.671937 37.620614 0.000006 0.000001 -0.000001 -0.000000 0.000001 0.000002 -0.000001 -0.000000 0.000001 0.000000 0.000000 -0.000001 -0.000001 -0.000000 0.000001 -0.000001 -0.000000 0.000001 -0.000001 -0.000000 0.000001 0.000000 0.000000 -0.000000 -0.000001 -0.000000 0.000001 -0.000001 -0.000000 0.000001 -0.000001 -0.000000 0.000001 0.000000 0.000000 -0.000000 0.000000 0.000001 -0.000001 0.000000 0.000001 -0.000001 0.000000 0.000001 -0.000001 
-0.690998 41.923615 -0.522370 1.574918 -173.124067 -9.604294 0.000000 0.000000 -0.000001 -76.936808 -10.608255 13.099409 115.511545 8.944001 3.473652 -35.151012 4.344446 -11.260109 -0.000000 0.000000 -0.000000 -0.000001 0.000000 -0.000000 -57.693310 7.864206 -23.546013 108.682906 -3.883661 -1.160801 -32.074753 -8.362658 24.608847 -0.000000 0.000001 0.000000 -0.000000 0.000000 -0.000002 4.421908 3.502547 -1.590822 9.012149 6.443477 -4.091600 9.012158 6.443478 -4.091602 -0.564258 28.024644 5.586442 5.175923 34.000637 -22.073389 -0.000001 0.000000 -0.000000 -0.000001 0.000000 -0.000000 -0.000001 0.000000 -0.000000 -0.000001 0.000000 -0.000000 0.000000 -0.000000 0.000000 -0.000001 0.000000 -0.000000 0.000000 -0.000000 0.000000 -0.000001 0.000000 -0.000000 -0.000001 0.000000 -0.000000 0.725906 -14.167304 -13.814315 -0.529661 -3.214317 -31.214805 40.157097 -32.104300 -3.134192 15.828004 9.783602 2.416704 -8.146133 -9.198058 7.879175 2.207852 6.272504 2.114095 0.000003 -0.000000 -0.000001 -1.232915 -8.665723 -5.000623 -0.120583 0.253198 -21.250704 0.000002 -0.000000 -0.000000 1.235397 -0.307800 -8.586086 -0.207592 -0.817521 -14.783388 0.000001 0.000001 -0.000003 -0.474696 3.860374 -6.446892 -0.564909 -2.625958 -29.838542 -0.000002 0.000000 -0.000002 -0.075336 7.066051 -1.726358 -0.699092 -5.773527 -39.206549 0.000003 -0.000002 0.000001 -0.000002 -0.000000 0.000000 3.302672 -14.383868 14.322982 8.576884 -15.125102 53.482820 30.562942 37.967488 -3.104999 23.486980 1.008634 11.464457 -7.900885 4.124517 -9.088830 0.016573 -1.443538 -1.452500 -0.000000 -0.000001 -0.000000 -1.217532 0.484587 8.436333 0.143294 -1.127025 16.866727 0.000002 0.000000 0.000002 -1.132837 -1.822249 1.624644 -0.344518 1.164722 22.320459 -0.000000 0.000000 0.000001 1.697626 -0.798992 -0.757266 -0.574393 3.102386 28.486829 0.000002 -0.000002 -0.000001 4.397006 -3.038785 -5.269101 -1.306346 7.661263 37.411156 -0.000002 -0.000000 -0.000001 0.000004 -0.000000 0.000001 0.000001 -0.000001 -0.000000 0.000002 0.000001 -0.000002 0.000001 -0.000001 -0.000000 0.000001 -0.000001 -0.000000 0.000001 -0.000001 -0.000000 0.000002 0.000001 -0.000002 0.000001 -0.000001 -0.000000 0.000001 -0.000001 -0.000000 0.000001 -0.000001 -0.000000 0.000002 0.000001 -0.000002 0.000000 0.000000 -0.000001 0.000000 0.000000 -0.000001 0.000000 0.000000 -0.000001 
-0.462786 41.986374 -0.652414 2.359781 -168.770778 -10.749244 0.000000 -0.000000 0.000001 -77.453901 -12.238721 10.469772 115.358576 8.838111 3.681342 -34.031831 4.127670 -11.164718 -0.000000 -0.000002 0.000000 0.000000 0.000000 -0.000001 -55.338852 5.060407 -23.235557 110.270720 -8.596309 -1.635724 -33.037099 -7.990569 23.587247 -0.000001 -0.000001 0.000000 -0.000000 0.000000 -0.000001 4.937583 3.346781 -0.891306 10.005789 6.108539 -2.791668 10.005787 6.108543 -2.791666 2.647052 24.874417 6.614703 5.850780 31.772988 -23.993256 -0.000001 0.000000 -0.000000 -0.000001 0.000000 -0.000000 -0.000001 0.000000 -0.000000 -0.000001 0.000000 -0.000000 -0.000001 0.000000 -0.000000 -0.000001 0.000000 -0.000000 -0.000001 0.000000 -0.000000 -0.000001 0.000000 -0.000000 -0.000001 0.000000 -0.000000 0.291351 -12.998310 -17.320996 -6.137914 -8.719630 -30.329588 40.272974 -28.160749 -4.748398 19.892318 8.073015 3.773174 -6.537009 -8.015427 8.448712 2.025558 5.821500 2.025803 0.000004 0.000001 0.000001 -3.466512 -5.153204 -6.559802 -0.097988 0.311697 -20.735572 0.000004 0.000002 0.000000 1.189973 -0.263325 -11.945921 -0.218696 -0.857304 -15.161649 0.000003 0.000001 -0.000001 -0.951113 3.736526 -8.465975 -0.550171 -2.604107 -29.408640 0.000003 0.000000 -0.000001 -1.002690 6.255484 -4.234287 -0.691210 -5.764051 -38.630816 -0.000002 0.000001 -0.000002 -0.000002 0.000000 0.000001 3.260164 -9.677173 16.112637 3.146282 -15.072233 45.123266 29.330239 31.784104 -1.391877 25.109480 2.157775 9.439194 -7.982155 3.447587 -8.453394 0.676868 -2.910322 -1.660599 -0.000001 -0.000002 0.000000 -1.254656 0.478846 9.704779 0.096282 -0.977854 18.419528 -0.000000 -0.000000 -0.000001 -1.176722 -1.755597 4.377241 -0.406051 1.308571 24.069558 0.000001 0.000001 -0.000004 1.478870 -1.410842 3.071740 -0.644461 3.229409 30.161548 -0.000000 -0.000001 0.000002 4.072104 -3.765399 -0.928637 -1.367454 7.739019 38.710862 -0.000001 0.000000 -0.000001 -0.000001 -0.000002 -0.000001 -0.000002 0.000002 -0.000002 -0.000001 0.000001 -0.000003 -0.000002 0.000002 -0.000003 -0.000002 0.000002 -0.000003 -0.000002 0.000002 -0.000002 -0.000001 0.000001 -0.000003 -0.000002 0.000002 -0.000003 -0.000002 0.000002 -0.000003 -0.000002 0.000002 -0.000002 -0.000001 0.000001 -0.000003 0.000000 -0.000000 0.000001 0.000000 -0.000000 0.000001 0.000000 -0.000000 0.000001 
-0.025828 42.005928 -0.707594 1.860662 -162.398498 -13.126433 0.000000 0.000000 -0.000001 -79.988093 -14.541251 6.335184 115.054755 10.041403 3.947063 -32.851376 3.699265 -10.295558 -0.000000 -0.000001 0.000000 -0.000001 0.000000 0.000002 -53.151955 0.345161 -23.003835 111.577349 -13.419583 -2.036132 -33.799546 -7.896985 23.525902 0.000001 0.000000 0.000001 0.000001 0.000001 -0.000000 5.479573 3.184046 0.111876 11.044925 5.744152 -0.954494 11.044926 5.744152 -0.954496 5.060594 21.683018 8.542308 5.843916 29.788303 -24.992572 0.000001 -0.000000 -0.000000 0.000001 -0.000000 -0.000000 0.000001 -0.000000 0.000000 0.000001 -0.000000 -0.000000 0.000001 0.000000 0.000001 0.000001 -0.000000 -0.000000 0.000001 0.000000 0.000001 0.000001 -0.000000 -0.000000 0.000001 -0.000000 -0.000000 -0.029165 -11.871649 -20.598867 -12.422870 -18.721263 -30.825125 39.938510 -21.758724 -6.143925 20.566535 7.629108 10.406474 -4.599786 -6.873405 10.340184 1.833346 5.339113 1.931024 -0.000000 0.000001 -0.000005 -7.986610 2.402601 -8.568108 -0.074457 0.374531 -20.184848 -0.000002 0.000002 -0.000003 1.071925 -1.098309 -18.343441 -0.230383 -0.899583 -15.563611 0.000001 0.000000 0.000001 -1.924246 2.391659 -10.488699 -0.536236 -2.579958 -28.944737 0.000001 0.000000 0.000001 -2.996779 3.223691 -6.751950 -0.682871 -5.753707 -38.011365 0.000000 -0.000002 0.000003 0.000003 0.000001 -0.000001 2.833447 -4.831253 17.151741 -1.958280 -12.340525 36.897430 25.254785 22.617132 0.822969 20.402648 0.211815 4.482717 -8.070000 2.724520 -7.779492 1.396576 -4.522634 -1.869790 -0.000001 0.000002 0.000003 -1.351844 0.590077 12.717418 -0.017371 -0.664368 21.730906 -0.000000 -0.000001 0.000000 -1.286374 -1.570605 8.973746 -0.542806 1.591617 27.590913 -0.000001 0.000002 -0.000002 1.251540 -1.936283 8.820807 -0.800117 3.483842 33.605695 -0.000002 0.000001 -0.000003 3.785299 -4.386438 5.370895 -1.517801 7.915697 41.763386 0.000002 -0.000002 0.000000 0.000002 -0.000000 -0.000001 0.000001 0.000000 -0.000001 0.000002 0.000004 -0.000002 0.000001 0.000000 -0.000000 0.000001 0.000000 -0.000000 0.000001 0.000000 -0.000001 0.000002 0.000004 -0.000002 0.000001 0.000000 -0.000000 0.000001 0.000000 -0.000000 0.000001 0.000000 -0.000001 0.000002 0.000004 -0.000002 0.000000 0.000000 -0.000001 0.000000 0.000000 -0.000001 0.000000 0.000000 -0.000001 
